<svg xmlns="http://www.w3.org/2000/svg" version="1.1" xmlns:xlink="http://www.w3.org/1999/xlink" xmlns:svgjs="http://svgjs.dev/svgjs" width="1440" height="560" preserveAspectRatio="none" viewBox="0 0 1440 560"><g mask="url(&quot;#SvgjsMask1004&quot;)" fill="none"><rect width="1440" height="560" x="0" y="0" fill="rgba(3, 142, 209, 1)"></rect><path d="M388.66 586.19C517.2 571.38 591.76 288.05 810.27 285.99 1028.77 283.93 1021.07 355.99 1231.87 355.99 1442.68 355.99 1546.64 286.23 1653.48 285.99" stroke="rgba(71, 180, 254, 0.58)" stroke-width="2"></path><path d="M790.39 580.92C900.71 572.08 953.84 363.43 1168.43 350.55 1383.02 337.67 1441.97 175.81 1546.47 171.35" stroke="rgba(71, 180, 254, 0.58)" stroke-width="2"></path><path d="M488.06 638.95C647.38 634.88 783.58 407.15 1081.84 407.02 1380.1 406.89 1524.29 524.06 1675.62 524.62" stroke="rgba(71, 180, 254, 0.58)" stroke-width="2"></path><path d="M636.39 566.14C750.39 522.45 675.58 195.37 931.1 176.74 1186.62 158.11 1369.69 48.69 1520.52 47.94" stroke="rgba(71, 180, 254, 0.58)" stroke-width="2"></path><path d="M548.67 670.86C724.97 636.62 802.24 191.3 1080.25 187.65 1358.26 184 1473.28 342.83 1611.83 344.45" stroke="rgba(71, 180, 254, 0.58)" stroke-width="2"></path></g><defs><mask id="SvgjsMask1004"><rect width="1440" height="560" fill="#ffffff"></rect></mask></defs></svg>