<svg width="1418" height="125" viewBox="0 0 1418 125" fill="none" xmlns="http://www.w3.org/2000/svg">
<g clip-path="url(#clip0_13_2)">
<path d="M1412.29 72.17C1401.25 66.39 1392.22 57.84 1326.83 46.93C1304.46 43.3 1282.14 39.37 1259.76 35.89C1092.65 13.83 1078.11 14.65 954.82 5.33005C888.78 1.39005 822.57 1.10005 756.44 4.79384e-05C709.81 -0.109952 663.17 1.56005 616.55 2.50005C365.5 13.55 452.86 7.68005 277.94 23.15C202.57 33.32 127.38 45.01 52.0699 55.69C40.8399 58.1 29.4399 59.86 18.3599 62.91C6.09992 66.33 5.63992 66.19 3.88992 67.79C-4.10008 73.57 0.909923 87.93 12.6099 85.29C46.5999 75.82 44.8899 76.7201 190.67 55.6301C194.93 60.1101 197.96 59.0101 209.09 58.7401C222.28 58.4201 235.47 58.21 248.65 57.62C302.16 53.81 355.53 48 409.01 43.67C427.42 42.37 445.81 40.5501 464.22 38.9701C487.43 37.8101 510.65 36.68 533.87 35.57C654.15 33.41 619.33 32.44 768.52 34.05C791.94 35.04 770.09 33.8701 894.24 40.9501C990.85 49.8301 1095.16 68.89 1189.66 87.07C1230.53 94.98 1306.33 110.27 1345.97 123.85C1349.78 124.9 1354.25 123.58 1356.48 120.27C1359.65 116.55 1359.14 110.57 1355.7 107.14C1352.45 104.02 1347.56 103.7 1343.52 102.06C1325.63 96.21 1299.33 89.97 1279.85 85.5L1306.01 88.78C1329.03 91.91 1352.29 92.7 1375.35 95.53C1386.15 96.49 1400.78 97.34 1409.69 91.14C1411.95 89.6 1414.55 88.39 1415.9 85.87C1418.66 81.28 1417.03 74.81 1412.31 72.19L1412.29 72.17ZM925.4 23.77C963.04 25.17 1079.39 34.62 1122.04 38.71C1167.99 44.22 1213.93 49.7401 1259.8 55.9001C1284.05 60.6701 1333.93 67.11 1361.52 74.04C1349.65 72.89 1337.75 72.07 1325.87 70.98C1192.41 55.08 1059.07 37.96 925.4 23.77Z" fill="#0392D6"/>
</g>
<defs>
<clipPath id="clip0_13_2">
<rect width="1418" height="125" fill="white"/>
</clipPath>
</defs>
</svg>
